<svg id="Layer_1" enable-background="new 0 0 511 511" height="512" viewBox="0 0 511 511" width="512" xmlns="http://www.w3.org/2000/svg"><g><path d="m207.5 391.5h96v64h-96z" fill="#e5ecf5"/><path d="m279.5 391.5h24v64h-24z" fill="#cad8eb"/><path d="m207.5 455.5h224v48h-224z" fill="#adb9c8"/><path d="m407.5 455.5h24v48h-24z" fill="#92a2b5"/><path d="m335.5 7.5h64v64h-64z" fill="#e5ecf5"/><path d="m375.5 7.5h24v64h-24z" fill="#cad8eb"/><path d="m383.5 343.5v32h-32v-32" fill="#e5ecf5"/><path d="m367.5 343.5h16v32h-16z" fill="#cad8eb"/><path d="m207.5 215.5v-32c-70.692 0-128 57.308-128 128s57.308 128 128 128v-32c-53.019 0-96-42.981-96-96s42.981-96 96-96z" fill="#adb9c8"/><path d="m207.5 183.5v32c-8.29 0-16.33 1.05-24 3.02v-32.77c7.78-1.48 15.8-2.25 24-2.25z" fill="#92a2b5"/><path d="m207.5 407.5v32c-8.2 0-16.22-.77-24-2.25v-32.77c7.67 1.97 15.71 3.02 24 3.02z" fill="#92a2b5"/><path d="m303.5 247.5h-48c-26.51 0-48-21.49-48-48 0-26.51 21.49-48 48-48h48" fill="#e5ecf5"/><path d="m287.5 151.5h16v96h-16z" fill="#cad8eb"/><circle cx="255.5" cy="199.5" fill="#fff" r="16"/><path d="m399.5 311.5v32h-64v-32" fill="#e5ecf5"/><path d="m375.5 311.5h24v32h-24z" fill="#cad8eb"/><path d="m431.5 279.5-32 32h-64l-32-32v-208h128z" fill="#adb9c8"/><path d="m303.5 71.5h128v208h-128z" fill="#adb9c8"/><path d="m407.5 71.5h24v208h-24z" fill="#92a2b5"/><path d="m431.5 279.5-32 32h-64l-32-32z" fill="#e5ecf5"/><path d="m407.5 279.5-32 32h24l32-32z" fill="#cad8eb"/><g><g><path d="m359.5 136h16v15h-16z" fill="#fff"/></g><g><path d="m359.5 200h16v15h-16z" fill="#fff"/></g></g><g><path d="m232 199.5c0 12.958 10.542 23.5 23.5 23.5s23.5-10.542 23.5-23.5-10.542-23.5-23.5-23.5-23.5 10.542-23.5 23.5zm32 0c0 4.687-3.814 8.5-8.5 8.5s-8.5-3.813-8.5-8.5 3.814-8.5 8.5-8.5 8.5 3.813 8.5 8.5z"/><path d="m359.5 168h16v15h-16z"/><path d="m439 135.5v-71.5h-32v-49h24.5v-15h-128v15h24.5v49h-32v80h-40.5c-22.217 0-41.417 13.128-50.276 32.029-73.669 1.221-133.224 61.517-133.224 135.471 0 72.198 56.76 131.383 128 135.289v64.211h239v-63h-63.5v15h48.5v33h-209v-33h144.5v-15h-48.5v-17h120.5v-15h-120.5v-32h-111v15.679c-45.301-3.82-81-41.906-81-88.179 0-48.047 38.486-87.273 86.249-88.471 8.872 18.87 28.056 31.971 50.251 31.971h40.5v27.606l32 32v36.394h16v32h47v-32h16v-36.394l32-32v-131.106h-15v120.5h-113v-193h113v56.5zm-224 263.5h81v49h-81zm-111-87.5c0 54.548 42.418 99.371 96 103.226v17.034c-62.963-3.887-113-56.336-113-120.26 0-64.135 50.367-116.722 113.623-120.299-.408 2.708-.623 5.479-.623 8.299 0 2.97.241 5.885.692 8.73-53.908 3.518-96.692 48.487-96.692 103.27zm192-71.5h-40.5c-22.332 0-40.5-18.169-40.5-40.5s18.168-40.5 40.5-40.5h40.5zm80 128h-17v-17h17zm16-32h-49v-17h49zm21.394-49-17 17h-57.787l-17-17zm-21.394-223h-49v-49h49z"/><path d="m239.5 416h32v15h-32z"/></g></g></svg>